<svg width="20" height="20" viewBox="0 0 20 20" fill="none" xmlns="http://www.w3.org/2000/svg">
<path d="M7.42565 17.225C7.26732 17.225 7.10898 17.1667 6.98398 17.0417C6.74232 16.8 6.74232 16.4 6.98398 16.1583L12.4173 10.725C12.8173 10.325 12.8173 9.67502 12.4173 9.27502L6.98398 3.84168C6.74232 3.60002 6.74232 3.20002 6.98398 2.95835C7.22565 2.71668 7.62565 2.71668 7.86732 2.95835L13.3007 8.39168C13.7257 8.81668 13.9673 9.39168 13.9673 10C13.9673 10.6083 13.734 11.1833 13.3007 11.6083L7.86732 17.0417C7.74232 17.1583 7.58398 17.225 7.42565 17.225Z" fill="#171725"/>
</svg>
