<svg width="17" height="16" viewBox="0 0 17 16" fill="none" xmlns="http://www.w3.org/2000/svg">
<path d="M16.0901 2.405H5.65713C3.77013 2.405 3.23013 0.805 3.23013 0.805L3.02713 0.21C2.97813 0.085 2.85313 0 2.71613 0H1.10613C0.870128 0 0.706128 0.24 0.794128 0.46L1.43813 2.405L3.88013 9.767C3.92713 9.904 4.05513 9.997 4.20013 9.997H12.6181L12.1251 11.955H4.53813L4.54013 11.958C4.52313 11.958 4.50713 11.955 4.49013 11.955C3.43013 11.955 2.57013 12.815 2.57013 13.875C2.57013 14.935 3.43013 15.795 4.49013 15.795C5.48013 15.795 6.29513 15.045 6.40013 14.083L11.9501 14.159C12.0701 15.081 12.8601 15.795 13.8171 15.795C14.8571 15.795 15.7021 14.951 15.7021 13.91C15.7021 13.044 15.1181 12.317 14.3221 12.096L16.7451 3.264C16.8651 2.831 16.5391 2.405 16.0901 2.405Z" fill="white"/>
</svg>
