<svg width="21" height="21" viewBox="0 0 21 21" fill="none" xmlns="http://www.w3.org/2000/svg">
<path fill-rule="evenodd" clip-rule="evenodd" d="M14.2944 11.4967L18.9889 16.1767C19.0911 16.2789 19.1011 16.4345 19.0111 16.5245L17.3833 18.1467C17.2933 18.2367 17.1378 18.2267 17.0344 18.1245L12.35 13.4545" fill="#2874F0"/>
<path fill-rule="evenodd" clip-rule="evenodd" d="M8.5922 12.6122C5.90331 12.6122 3.72442 10.4389 3.72442 7.75889C3.72442 5.07778 5.90331 2.90444 8.5922 2.90444C11.2811 2.90444 13.46 5.07778 13.46 7.75889C13.46 10.44 11.2811 12.6122 8.5922 12.6122ZM8.5922 0.573334C4.6122 0.573334 1.38553 3.79 1.38553 7.75889C1.38553 11.7278 4.6122 14.9444 8.5922 14.9444C12.5722 14.9444 15.7989 11.7278 15.7989 7.75889C15.7989 3.79 12.5722 0.573334 8.5922 0.573334Z" fill="#2874F0"/>
</svg>
